<?xml version="1.0" encoding="UTF-8"?>
<svg width="154px" height="154px" viewBox="0 0 154 154" version="1.1" xmlns="http://www.w3.org/2000/svg" xmlns:xlink="http://www.w3.org/1999/xlink">
    <title>implement-icon</title>
    <defs>
        <rect id="path-1" x="0" y="0" width="104" height="104" rx="8"></rect>
        <filter x="-52.4%" y="-29.3%" width="181.7%" height="181.7%" filterUnits="objectBoundingBox" id="filter-2">
            <feMorphology radius="0.5" operator="dilate" in="SourceAlpha" result="shadowSpreadOuter1"></feMorphology>
            <feOffset dx="-12" dy="12" in="shadowSpreadOuter1" result="shadowOffsetOuter1"></feOffset>
            <feGaussianBlur stdDeviation="12" in="shadowOffsetOuter1" result="shadowBlurOuter1"></feGaussianBlur>
            <feComposite in="shadowBlurOuter1" in2="SourceAlpha" operator="out" result="shadowBlurOuter1"></feComposite>
            <feColorMatrix values="0 0 0 0 0.596078431   0 0 0 0 0.788235294   0 0 0 0 0.235294118  0 0 0 1 0" type="matrix" in="shadowBlurOuter1"></feColorMatrix>
        </filter>
        <linearGradient x1="50%" y1="0%" x2="50%" y2="100%" id="linearGradient-3">
            <stop stop-color="#00728A" offset="0%"></stop>
            <stop stop-color="#003E52" offset="100%"></stop>
        </linearGradient>
    </defs>
    <g id="Page-1" stroke="none" stroke-width="1" fill="none" fill-rule="evenodd">
        <g id="implement-icon" transform="translate(37.000000, 13.000000)">
            <g id="Rectangle">
                <use fill="black" fill-opacity="1" filter="url(#filter-2)" xlink:href="#path-1"></use>
                <use stroke="#98C93C" stroke-width="1" fill="#FFFFFF" fill-rule="evenodd" xlink:href="#path-1"></use>
            </g>
            <g id="29-server,-hosting,-code,-development,-developer,-programmer" transform="translate(20.000000, 20.000000)" fill="url(#linearGradient-3)" fill-rule="nonzero">
                <path d="M30.996,31.999 C32.65,31.999 33.996,33.345 33.996,34.999 L33.996,34.999 L33.996,55.998 C33.996,57.652 32.65,58.998 30.996,58.998 L30.996,58.998 L22.216,58.998 L22.816,61.998 L23.997,61.998 C24.55,61.998 24.997,62.445 24.997,62.998 C24.997,63.551 24.55,63.998 23.997,63.998 L23.997,63.998 L9.997,63.998 C9.444,63.998 8.997,63.551 8.997,62.998 C8.997,62.445 9.444,61.998 9.997,61.998 L9.997,61.998 L11.178,61.998 L11.778,58.998 L3,58.998 C1.346,58.998 0,57.652 0,55.998 L0,55.998 L0,34.999 C0,33.345 1.346,31.999 3,31.999 L3,31.999 Z M20.178,58.998 L13.817,58.998 L13.217,61.998 L20.778,61.998 L20.178,58.998 Z M31.999,54.998 L17.029,54.998 C17.581,54.998 18.029,55.445 18.029,55.998 C18.029,56.551 17.581,56.998 17.029,56.998 L17.029,56.998 L30.999,56.998 C31.551,56.998 31.999,56.55 31.999,55.998 L31.999,55.998 L31.999,54.998 Z M17.018,54.998 L2,54.998 L2,55.998 C2,56.55 2.448,56.998 3,56.998 L3,56.998 L17.029,56.998 C16.476,56.998 16.024,56.551 16.024,55.998 C16.024,55.445 16.466,54.998 17.018,54.998 L17.018,54.998 Z M30.998,33.999 L5,33.999 L5,52.998 L31.998,52.998 L31.998,34.999 C31.998,34.447 31.55,33.999 30.998,33.999 L30.998,33.999 Z M3,33.999 C2.448,33.999 2,34.447 2,34.999 L2,34.999 L2,52.998 L3,52.998 Z M9.992,50.001 C10.545,50.001 10.992,50.448 10.992,51.001 C10.992,51.554 10.545,52.001 9.992,52.001 L9.992,52.001 L6.992,52.001 C6.439,52.001 5.992,51.554 5.992,51.001 C5.992,50.448 6.439,50.001 6.992,50.001 L6.992,50.001 Z M14.996,47.001 C15.549,47.001 15.996,47.448 15.996,48.001 C15.996,48.554 15.549,49.001 14.996,49.001 L14.996,49.001 L7.992,49.001 C7.439,49.001 6.992,48.554 6.992,48.001 C6.992,47.448 7.439,47.001 7.992,47.001 L7.992,47.001 Z M28.01,44.001 C28.563,44.001 29.01,44.448 29.01,45.001 C29.01,45.554 28.563,46.001 28.01,46.001 L28.01,46.001 L8.994,46.001 C8.441,46.001 7.994,45.554 7.994,45.001 C7.994,44.448 8.441,44.001 8.994,44.001 L8.994,44.001 Z M23.004,40.998 C23.557,40.998 24.004,41.445 24.004,41.998 C24.004,42.551 23.557,42.998 23.004,42.998 L23.004,42.998 L8.994,42.998 C8.441,42.998 7.994,42.551 7.994,41.998 C7.994,41.445 8.441,40.998 8.994,40.998 L8.994,40.998 Z M19,37.998 C19.553,37.998 20,38.445 20,38.998 C20,39.551 19.553,39.998 19,39.998 L19,39.998 L7.992,39.998 C7.439,39.998 6.992,39.551 6.992,38.998 C6.992,38.445 7.439,37.998 7.992,37.998 L7.992,37.998 Z M9.992,34.997 C10.545,34.997 10.992,35.444 10.992,35.997 C10.992,36.55 10.545,36.997 9.992,36.997 L9.992,36.997 L6.992,36.997 C6.439,36.997 5.992,36.55 5.992,35.997 C5.992,35.444 6.439,34.997 6.992,34.997 L6.992,34.997 Z M61.992,0 C63.095,0 63.992,0.897 63.992,2 L63.992,2 L63.992,9.998 C63.992,10.364 63.887,10.702 63.714,10.998 C63.887,11.294 63.992,11.632 63.992,11.998 L63.992,11.998 L63.992,19.996 C63.992,20.362 63.887,20.7 63.714,20.996 C63.887,21.292 63.992,21.63 63.992,21.996 L63.992,21.996 L63.992,29.994 C63.992,31.097 63.095,31.994 61.992,31.994 L61.992,31.994 L36,31.994 C34.897,31.994 34,31.097 34,29.994 L34,29.994 L34,21.996 C34,21.63 34.105,21.292 34.278,20.996 C34.105,20.7 34,20.362 34,19.996 L34,19.996 L34,11.998 C34,11.632 34.105,11.294 34.278,10.998 C34.105,10.702 34,10.364 34,9.998 L34,9.998 L34,2 C34,0.897 34.897,0 36,0 L36,0 Z M61.992,21.996 L36,21.996 L36,29.994 L61.992,29.994 L61.992,21.996 Z M39.998,22.995 C41.652,22.995 42.998,24.341 42.998,25.995 C42.998,27.649 41.652,28.995 39.998,28.995 C38.344,28.995 36.998,27.649 36.998,25.995 C36.998,24.341 38.344,22.995 39.998,22.995 Z M50.098,24.547 C50.346,24.053 50.945,23.855 51.44,24.1 C51.934,24.347 52.134,24.948 51.887,25.442 L51.887,25.442 L50.887,27.442 C50.711,27.793 50.358,27.995 49.991,27.995 C49.841,27.995 49.689,27.961 49.545,27.89 C49.051,27.643 48.85,27.042 49.098,26.547 L49.098,26.547 Z M54.098,24.547 C54.346,24.053 54.946,23.855 55.44,24.1 C55.934,24.347 56.134,24.948 55.887,25.442 L55.887,25.442 L54.887,27.442 C54.711,27.793 54.358,27.995 53.991,27.995 C53.841,27.995 53.689,27.961 53.545,27.89 C53.051,27.643 52.85,27.042 53.098,26.547 L53.098,26.547 Z M58.098,24.547 C58.346,24.053 58.946,23.855 59.44,24.1 C59.934,24.347 60.134,24.948 59.887,25.442 L59.887,25.442 L58.887,27.442 C58.711,27.793 58.358,27.995 57.991,27.995 C57.841,27.995 57.689,27.961 57.545,27.89 C57.051,27.643 56.85,27.042 57.098,26.547 L57.098,26.547 Z M39.998,24.995 C39.446,24.995 38.998,25.443 38.998,25.995 C38.998,26.547 39.446,26.995 39.998,26.995 C40.55,26.995 40.998,26.547 40.998,25.995 C40.998,25.443 40.55,24.995 39.998,24.995 Z M61.992,11.998 L36,11.998 L36,19.996 L61.992,19.996 L61.992,11.998 Z M39.998,12.997 C41.652,12.997 42.998,14.343 42.998,15.997 C42.998,17.651 41.652,18.997 39.998,18.997 C38.344,18.997 36.998,17.651 36.998,15.997 C36.998,14.343 38.344,12.997 39.998,12.997 Z M50.098,14.549 C50.346,14.055 50.945,13.856 51.44,14.102 C51.934,14.349 52.134,14.95 51.887,15.444 L51.887,15.444 L50.887,17.444 C50.711,17.795 50.358,17.997 49.991,17.997 C49.841,17.997 49.689,17.963 49.545,17.892 C49.051,17.645 48.85,17.044 49.098,16.549 L49.098,16.549 Z M54.098,14.549 C54.346,14.055 54.946,13.856 55.44,14.102 C55.934,14.349 56.134,14.95 55.887,15.444 L55.887,15.444 L54.887,17.444 C54.711,17.795 54.358,17.997 53.991,17.997 C53.841,17.997 53.689,17.963 53.545,17.892 C53.051,17.645 52.85,17.044 53.098,16.549 L53.098,16.549 Z M58.098,14.549 C58.346,14.055 58.946,13.856 59.44,14.102 C59.934,14.349 60.134,14.95 59.887,15.444 L59.887,15.444 L58.887,17.444 C58.711,17.795 58.358,17.997 57.991,17.997 C57.841,17.997 57.689,17.963 57.545,17.892 C57.051,17.645 56.85,17.044 57.098,16.549 L57.098,16.549 Z M39.998,14.997 C39.446,14.997 38.998,15.445 38.998,15.997 C38.998,16.549 39.446,16.997 39.998,16.997 C40.55,16.997 40.998,16.549 40.998,15.997 C40.998,15.445 40.55,14.997 39.998,14.997 Z M61.992,2 L36,2 L36,9.998 L61.989,9.998 L61.992,2 Z M39.998,2.999 C41.652,2.999 42.998,4.345 42.998,5.999 C42.998,7.653 41.652,8.999 39.998,8.999 C38.344,8.999 36.998,7.653 36.998,5.999 C36.998,4.345 38.344,2.999 39.998,2.999 Z M50.097,4.551 C50.345,4.057 50.944,3.859 51.439,4.104 C51.934,4.352 52.134,4.952 51.887,5.446 L51.887,5.446 L50.887,7.446 C50.711,7.797 50.358,7.999 49.991,7.999 C49.841,7.999 49.688,7.965 49.544,7.893 C49.05,7.646 48.85,7.045 49.097,6.551 L49.097,6.551 Z M54.097,4.551 C54.345,4.057 54.945,3.859 55.439,4.104 C55.934,4.352 56.134,4.952 55.887,5.446 L55.887,5.446 L54.887,7.446 C54.711,7.797 54.358,7.999 53.991,7.999 C53.841,7.999 53.688,7.965 53.544,7.893 C53.05,7.646 52.85,7.045 53.097,6.551 L53.097,6.551 Z M58.097,4.551 C58.345,4.057 58.945,3.859 59.439,4.104 C59.934,4.352 60.134,4.952 59.887,5.446 L59.887,5.446 L58.887,7.446 C58.711,7.797 58.358,7.999 57.991,7.999 C57.841,7.999 57.688,7.965 57.544,7.893 C57.05,7.646 56.85,7.045 57.097,6.551 L57.097,6.551 Z M39.998,4.999 C39.446,4.999 38.998,5.447 38.998,5.999 C38.998,6.551 39.446,6.999 39.998,6.999 C40.55,6.999 40.998,6.551 40.998,5.999 C40.998,5.447 40.55,4.999 39.998,4.999 Z M38.705,43.292 C38.314,42.901 37.682,42.901 37.291,43.292 L35.292,45.291 C35.199,45.383 35.126,45.494 35.075,45.617 C34.973,45.861 34.973,46.137 35.075,46.381 C35.126,46.504 35.199,46.615 35.292,46.707 L37.291,48.706 C37.486,48.901 37.742,48.999 37.998,48.999 C38.254,48.999 38.51,48.901 38.705,48.706 C39.096,48.315 39.096,47.683 38.705,47.292 L38.412,46.999 L48.993,46.999 C48.995,46.999 48.996,47 48.998,47 C49.551,47 49.998,46.553 49.998,46 L49.998,34 C49.998,33.447 49.551,33 48.998,33 C48.445,33 47.998,33.447 47.998,34 L47.998,44.999 L38.412,44.999 L38.705,44.706 C39.096,44.315 39.096,43.683 38.705,43.292 Z M15.998,16.997 C15.445,16.997 14.998,17.444 14.998,17.997 L14.998,29.997 C14.998,30.55 15.445,30.997 15.998,30.997 C16.551,30.997 16.998,30.55 16.998,29.997 L16.998,18.998 L29.588,18.998 L29.295,19.291 C28.904,19.682 28.904,20.314 29.295,20.705 C29.49,20.9 29.746,20.998 30.002,20.998 C30.258,20.998 30.514,20.9 30.709,20.705 L32.708,18.706 C32.801,18.614 32.874,18.503 32.925,18.38 C33.026,18.136 33.026,17.86 32.925,17.616 C32.874,17.493 32.801,17.382 32.708,17.29 L30.709,15.291 C30.318,14.9 29.686,14.9 29.295,15.291 C28.904,15.682 28.904,16.314 29.295,16.705 L29.588,16.998 L16.003,16.998 C16.001,16.998 16,16.997 15.998,16.997 Z" id="Combined-Shape"></path>
            </g>
        </g>
    </g>
</svg>