<?xml version="1.0" encoding="UTF-8"?>
<svg width="154px" height="154px" viewBox="0 0 154 154" version="1.1" xmlns="http://www.w3.org/2000/svg" xmlns:xlink="http://www.w3.org/1999/xlink">
    <title>Plan-icon</title>
    <defs>
        <rect id="path-1" x="0" y="0" width="104" height="104" rx="8"></rect>
        <filter x="-52.4%" y="-29.3%" width="181.7%" height="181.7%" filterUnits="objectBoundingBox" id="filter-2">
            <feMorphology radius="0.5" operator="dilate" in="SourceAlpha" result="shadowSpreadOuter1"></feMorphology>
            <feOffset dx="-12" dy="12" in="shadowSpreadOuter1" result="shadowOffsetOuter1"></feOffset>
            <feGaussianBlur stdDeviation="12" in="shadowOffsetOuter1" result="shadowBlurOuter1"></feGaussianBlur>
            <feComposite in="shadowBlurOuter1" in2="SourceAlpha" operator="out" result="shadowBlurOuter1"></feComposite>
            <feColorMatrix values="0 0 0 0 0.596078431   0 0 0 0 0.788235294   0 0 0 0 0.235294118  0 0 0 1 0" type="matrix" in="shadowBlurOuter1"></feColorMatrix>
        </filter>
        <linearGradient x1="50%" y1="0%" x2="50%" y2="100%" id="linearGradient-3">
            <stop stop-color="#00728A" offset="0%"></stop>
            <stop stop-color="#003E52" offset="100%"></stop>
        </linearGradient>
    </defs>
    <g id="Page-1" stroke="none" stroke-width="1" fill="none" fill-rule="evenodd">
        <g id="Plan-icon" transform="translate(37.000000, 13.000000)">
            <g id="Rectangle">
                <use fill="black" fill-opacity="1" filter="url(#filter-2)" xlink:href="#path-1"></use>
                <use stroke="#98C93C" stroke-width="1" fill="#FFFFFF" fill-rule="evenodd" xlink:href="#path-1"></use>
            </g>
            <g id="17-training,-presentation,-code,-development,-developer,-programmer" transform="translate(20.000000, 20.000000)" fill="url(#linearGradient-3)" fill-rule="nonzero">
                <path d="M63,0 C63.553,0 64,0.447 64,1 L64,1 L64,31 C64,31.553 63.553,32 63,32 L63,32 L23,32 C22.447,32 22,31.553 22,31 L22,31 L22,26 L20,26 L20,31 C20,31.553 19.553,32 19,32 C18.447,32 18,31.553 18,31 L18,31 L18,25 C18,24.447 18.447,24 19,24 L19,24 L24,24 C27.309,24 30,21.309 30,18 C30,17.448 29.552,17 29,17 C28.448,17 28,17.448 28,18 C28,20.206 26.206,22 24,22 C24,22 24,22 23.999,22 L23.003,21.999 C23.002,21.999 23.001,22 23,22 C22.999,22 22.998,21.999 22.997,22 L22.997,22 L15.414,21.996 L14.707,22.703 L14.707,22.703 L14.673,22.725 C14.597,22.795 14.512,22.85 14.42,22.893 C14.391,22.907 14.363,22.92 14.334,22.93 C14.228,22.968 14.117,22.994 14.002,22.995 L14.002,22.995 L13.999125,22.995 L13.9965,22.9945 C13.855,22.993 13.718,22.957 13.588,22.897 C13.576,22.892 13.565,22.895 13.553,22.889 L13.553,22.889 L12,22.113 L10.447,22.888 C10.435,22.894 10.424,22.891 10.412,22.896 C10.282,22.956 10.146,22.992 10.006,22.993 C10.004,22.993 10.003,22.994 10.001,22.994 L10.001,22.994 L9.998625,22.994 L9.88437037,22.9851481 C9.80955556,22.9743333 9.73666667,22.9543333 9.666,22.929 C9.637,22.919 9.609,22.906 9.58,22.892 C9.488,22.849 9.403,22.794 9.328,22.725 C9.317,22.716 9.303,22.713 9.293,22.702 L9.293,22.702 L8.593,22.002 L5,22.002 C4.998,22.002 4.996,22.001 4.993,22.001 C3.342,22.004 2,23.348 2,25 L2,25 L2,31 C2,31.553 1.553,32 1,32 C0.447,32 0,31.553 0,31 L0,31 L0,25 C0,22.243 2.243,20 5,20 C5.004,20 5.006,20.002 5.01,20.002 L5.01,20.002 L8,20.002 L8,18.91 C5.614,17.525 4.003,14.951 4,12.002 L4,12.002 L4,10.001 C3.945,9.993 3.898,9.991 3.843,9.982 C3.802,9.975 3.771,9.952 3.732,9.941 C3.666,9.922 3.603,9.902 3.542,9.87 C3.486,9.841 3.438,9.807 3.389,9.767 C3.337,9.726 3.289,9.685 3.247,9.635 C3.206,9.587 3.174,9.536 3.143,9.481 C3.112,9.425 3.084,9.371 3.063,9.308 C3.042,9.246 3.032,9.182 3.024,9.115 C3.02,9.074 3,9.038 3,8.995 L3,8.995 L3,8.499 C3,3.813 6.813,0 11.499,0 C13.949,0 16.153,1.047 17.706,2.711 C17.732,2.737 17.758,2.764 17.781,2.793 C19.154,4.304 20,6.302 20,8.499 L20,8.499 L20,12.001 L20,12.001 L19.9943709,12.2956199 C19.8887389,15.1212789 18.3064667,17.5711667 16,18.91 L16,18.91 L16,19.996 L22,19.999 L22,1 C22,0.447 22.447,0 23,0 L23,0 Z M5,25 C5.553,25 6,25.447 6,26 L6,26 L6,31 C6,31.553 5.553,32 5,32 C4.447,32 4,31.553 4,31 L4,31 L4,26 C4,25.447 4.447,25 5,25 Z M62,2 L24,2 L24,20 L24.1490673,19.994505 C25.1826921,19.9180289 26,19.0528636 26,18 C26,16.346 27.346,15 29,15 C30.654,15 32,16.346 32,18 C32,22.411 28.411,26 24,26 L24,26 L24,30 L62,30 L62,2 Z M42.996,4 C44.65,4 45.996,5.346 45.996,7 C45.996,8.654 44.65,10 42.996,10 L42.996,10 L40.997,10 L40.997,12.435 L45.273,15.001 L48,15.001 L48,14 C48,13.447 48.447,13 49,13 L49,13 L59,13 C59.553,13 60,13.447 60,14 L60,14 L60,18.001 C60,18.554 59.553,19.001 59,19.001 L59,19.001 L55,19.001 L55,25 C55,25.553 54.553,26 54,26 L54,26 L45.811,26 C45.397,27.161 44.298,27.999 42.996,27.999 L42.996,27.999 L36.998,27.999 C35.344,27.999 33.998,26.653 33.998,24.999 C33.998,23.345 35.344,21.999 36.998,21.999 L36.998,21.999 L38.997,21.999 L38.997,19.567 L34.483,16.858 C34.183,16.678 33.998,16.352 33.998,16.001 C33.998,15.65 34.182,15.325 34.483,15.144 L34.483,15.144 L38.997,12.435 L38.997,10 L36.998,10 C35.344,10 33.998,8.654 33.998,7 C33.998,5.346 35.344,4 36.998,4 L36.998,4 Z M42.996,23.999 L36.998,23.999 C36.446,23.999 35.998,24.447 35.998,24.999 C35.998,25.551 36.446,25.999 36.998,25.999 L36.998,25.999 L42.996,25.999 C43.548,25.999 43.996,25.551 43.996,24.999 C43.996,24.447 43.548,23.999 42.996,23.999 L42.996,23.999 Z M48,17.001 L45.273,17.001 L40.997,19.567 L40.997,21.999 L42.996,21.999 C44.298,21.999 45.398,22.838 45.812,24 L45.812,24 L53,24 L53,19.001 L49,19.001 C48.447,19.001 48,18.554 48,18.001 L48,18.001 L48,17.001 Z M14,19.728 C13.359,19.894 12.691,19.992 12,19.992 C11.309,19.992 10.641,19.895 10,19.728 L10,19.728 L10,20.581 L10.199,20.778 L11.554,20.1 C11.576,20.089 11.6,20.091 11.622,20.081 C11.685,20.054 11.75,20.042 11.817,20.028 C11.88,20.017 11.938,20.005 12.001,20.005 C12.063,20.005 12.122,20.016 12.185,20.028 C12.252,20.042 12.317,20.055 12.38,20.081 C12.402,20.091 12.426,20.089 12.448,20.1 L12.448,20.1 L13.803,20.778 L14,20.581 Z M18,10.216 C16.239,7.98 15.678,8.194 13.792,8.941 C12.193,9.575 9.881,10.475 6,10.219 L6,10.219 L6,11.995 C6,15.302 8.691,17.992 12,17.992 C15.309,17.992 18,15.302 18,11.995 L18,11.995 Z M39.997,14.167 L36.941,16.001 L39.997,17.835 L43.053,16.001 L39.997,14.167 Z M58,15 L50,15 L50,17.001 L58,17.001 L58,15 Z M11.499,2 C8.046,2 5.221,4.709 5.02,8.112 C9.136,8.603 11.396,7.739 13.056,7.081 C13.492,6.909 13.902,6.754 14.298,6.638 L14.298,6.638 L15.78,3.62 C14.635,2.615 13.14,2 11.499,2 Z M42.996,6 L36.998,6 C36.446,6 35.998,6.448 35.998,7 C35.998,7.552 36.446,8 36.998,8 L36.998,8 L42.996,8 C43.548,8 43.996,7.552 43.996,7 C43.996,6.448 43.548,6 42.996,6 L42.996,6 Z M17.169,5.328 L16.565,6.557 C16.988,6.683 17.42,6.904 17.877,7.251 C17.743,6.565 17.5,5.919 17.169,5.328 L17.169,5.328 Z M60,55.996 C59.989,55.996 59.981,56.002 59.971,56.002 L58,56.002 L58,53.91 C60.366,52.537 61.968,49.991 61.996,47.072 C61.996,47.066 61.997,47.06 61.997,47.053 C61.997,47.035 62,47.019 62,47.001 C62,47 62,47 62,46.999 L62,42.01 C62,42.006 62.002,42.003 62.002,42 C62.002,40.142 60.722,38.588 59,38.141 L59,36 C59,35.447 58.553,35 58,35 L53,35 C49.143,35 46.003,38.138 46,41.995 L46,41.996 L46,47 C46,47.001 46,47.001 46,47.002 C46,47.02 46.003,47.036 46.003,47.054 C46.003,47.061 46.004,47.067 46.004,47.073 C46.032,49.992 47.634,52.538 50,53.911 L50,56.003 L48.029,56.003 C48.018,56.003 48.01,55.997 48,55.997 C45.794,55.997 44,57.791 44,59.996 L44,63 C44,63.553 44.447,64 45,64 L63,64 C63.553,64 64,63.553 64,63 L64,59.995 C64,57.79 62.206,55.996 60,55.996 Z M53,37 L57,37 L57,39 C57,39.553 57.447,40 58,40 C59.101,40 59.996,40.893 60.001,41.991 C60.001,41.993 60,41.994 60,41.996 L60,46.735 C59.568,47.444 57.751,50 54,50 C50.247,50 48.441,47.466 48,46.737 L48,42 C48,39.243 50.243,37 53,37 Z M49.328,50.749 C50.514,51.457 52.049,52 54,52 C55.951,52 57.486,51.457 58.672,50.749 C57.571,52.115 55.887,52.992 54,52.992 C52.113,52.992 50.429,52.115 49.328,50.749 Z M54,54.992 C54.691,54.992 55.359,54.894 56,54.728 L56,55.995 L52,55.995 L52,54.728 C52.641,54.895 53.309,54.992 54,54.992 Z M47.98,57.998 C47.987,57.998 47.993,58.002 48,58.002 L51,58.002 C51.012,58.002 51.021,57.995 51.034,57.995 L56.966,57.995 C56.979,57.995 56.988,58.002 57,58.002 L60,58.002 C60.007,58.002 60.013,57.998 60.02,57.998 C61.114,58.009 62,58.899 62,59.995 L62,62 L46,62 L46,59.995 C46,58.899 46.887,58.009 47.98,57.998 Z M1,64 L19,64 C19.553,64 20,63.553 20,63 L20,59.995 C20,57.79 18.206,55.996 16,55.996 C15.989,55.996 15.981,56.002 15.971,56.002 L14,56.002 L14,53.91 C16.366,52.537 17.968,49.991 17.996,47.072 C17.996,47.066 17.997,47.06 17.997,47.053 C17.997,47.035 18,47.019 18,47.001 C18,47 18,47 18,46.999 L18,42.995 C18,38.587 14.411,35 10,35 C5.589,35 2,38.587 2,42.996 L2,47 C2,47.001 2,47.001 2,47.002 C2,47.02 2.003,47.036 2.003,47.054 C2.003,47.061 2.004,47.067 2.004,47.073 C2.032,49.991 3.634,52.537 6,53.91 L6,56.002 L4.029,56.002 C4.018,56.002 4.01,55.996 4,55.996 C1.794,55.996 0,57.79 0,59.995 L0,63 C0,63.553 0.447,64 1,64 Z M10,37 C13.309,37 16,39.689 16,42.996 L16,46.735 C15.568,47.444 13.751,50 10,50 C6.247,50 4.441,47.466 4,46.737 L4,42.996 C4,39.689 6.691,37 10,37 Z M5.328,50.749 C6.514,51.457 8.049,52 10,52 C11.951,52 13.486,51.457 14.672,50.749 C13.571,52.115 11.887,52.992 10,52.992 C8.113,52.992 6.429,52.115 5.328,50.749 Z M10,54.992 C10.691,54.992 11.359,54.894 12,54.728 L12,55.995 L8,55.995 L8,54.728 C8.641,54.895 9.309,54.992 10,54.992 Z M3.98,57.998 C3.987,57.998 3.993,58.002 4,58.002 L7,58.002 C7.012,58.002 7.021,57.995 7.034,57.995 L12.966,57.995 C12.979,57.995 12.988,58.002 13,58.002 L16,58.002 C16.007,58.002 16.013,57.998 16.02,57.998 C17.114,58.009 18,58.899 18,59.995 L18,62 L2,62 L2,59.995 C2,58.899 2.887,58.009 3.98,57.998 Z M28,56.002 L26.029,56.002 C26.018,56.002 26.01,55.996 26,55.996 C23.794,55.996 22,57.79 22,59.995 L22,63 C22,63.553 22.447,64 23,64 L41,64 C41.553,64 42,63.553 42,63 L42,59.995 C42,57.79 40.206,55.996 38,55.996 C37.989,55.996 37.981,56.002 37.971,56.002 L36,56.002 L36,55.318 C36,55.205 35.971,55.101 35.936,55 L41,55 C41.553,55 42,54.553 42,54 L42,44.042 C42,38.528 37.514,34.042 32,34.042 C26.486,34.042 22,38.528 22,44.042 L22,54 C22,54.553 22.447,55 23,55 L28.064,55 C28.029,55.102 28,55.205 28,55.318 L28,56.002 Z M40,59.995 L40,62 L24,62 L24,59.995 C24,58.899 24.887,58.009 25.98,57.998 C25.987,57.998 25.993,58.002 26,58.002 L28.859,58.002 L31.683,58.943 C31.685,58.944 31.687,58.943 31.688,58.944 C31.788,58.976 31.892,58.995 32,58.995 C32.108,58.995 32.212,58.976 32.312,58.944 C32.314,58.943 32.315,58.944 32.317,58.943 L35.141,58.002 L38,58.002 C38.007,58.002 38.013,57.998 38.02,57.998 C39.113,58.009 40,58.899 40,59.995 Z M32,36.042 C36.411,36.042 40,39.631 40,44.042 L40,53 L24,53 L24,44.042 C24,39.631 27.589,36.042 32,36.042 Z M34.064,55 C34.029,55.102 34,55.205 34,55.318 L34,56.274 L32,56.941 L30,56.274 L30,55.318 C30,55.205 29.971,55.101 29.936,55 L34.064,55 Z" id="Combined-Shape"></path>
            </g>
        </g>
    </g>
</svg>