<?xml version="1.0" encoding="UTF-8"?>
<svg width="154px" height="154px" viewBox="0 0 154 154" version="1.1" xmlns="http://www.w3.org/2000/svg" xmlns:xlink="http://www.w3.org/1999/xlink">
    <title>support-icon</title>
    <defs>
        <rect id="path-1" x="0" y="0" width="104" height="104" rx="8"></rect>
        <filter x="-52.4%" y="-29.3%" width="181.7%" height="181.7%" filterUnits="objectBoundingBox" id="filter-2">
            <feMorphology radius="0.5" operator="dilate" in="SourceAlpha" result="shadowSpreadOuter1"></feMorphology>
            <feOffset dx="-12" dy="12" in="shadowSpreadOuter1" result="shadowOffsetOuter1"></feOffset>
            <feGaussianBlur stdDeviation="12" in="shadowOffsetOuter1" result="shadowBlurOuter1"></feGaussianBlur>
            <feComposite in="shadowBlurOuter1" in2="SourceAlpha" operator="out" result="shadowBlurOuter1"></feComposite>
            <feColorMatrix values="0 0 0 0 0.596078431   0 0 0 0 0.788235294   0 0 0 0 0.235294118  0 0 0 1 0" type="matrix" in="shadowBlurOuter1"></feColorMatrix>
        </filter>
        <linearGradient x1="50%" y1="0%" x2="50%" y2="100%" id="linearGradient-3">
            <stop stop-color="#00728A" offset="0%"></stop>
            <stop stop-color="#003E52" offset="100%"></stop>
        </linearGradient>
    </defs>
    <g id="Page-1" stroke="none" stroke-width="1" fill="none" fill-rule="evenodd">
        <g id="support-icon" transform="translate(37.000000, 13.000000)">
            <g id="Rectangle">
                <use fill="black" fill-opacity="1" filter="url(#filter-2)" xlink:href="#path-1"></use>
                <use stroke="#98C93C" stroke-width="1" fill="#FFFFFF" fill-rule="evenodd" xlink:href="#path-1"></use>
            </g>
            <g id="13-table,-laptop,-code,-development,-developer,-programmer" transform="translate(20.000000, 20.000000)" fill="url(#linearGradient-3)" fill-rule="nonzero">
                <path d="M52,3 C52.5135,3 52.935602,3.38542347 52.9932824,3.88324672 L53,4 L53,7.09 C55.7543056,7.55472222 57.8790972,9.89758873 57.995016,12.7539439 L58,13 L58,22.005 C57.9990256,26.3204359 55.7024615,30.1004241 52.2730735,32.2136498 L52,32.377 L52,34.002 L54.999,34 C58.7785833,34 61.8688129,37.0114883 61.9959321,40.7597693 L62,41 L62,47 L63,47 C63.5135,47 63.935602,47.3854235 63.9932824,47.8832467 L64,48 L64,52 C64,52.5135 63.6145765,52.935602 63.1167533,52.9932824 L63,53 L62,53 L62,63 C62,63.553 61.553,64 61,64 C60.4865,64 60.064398,63.6145765 60.0067176,63.1167533 L60,63 L60,53 L4,53 L4,63 C4,63.553 3.553,64 3,64 C2.4865,64 2.06439796,63.6145765 2.00671757,63.1167533 L2,63 L2,53 L1,53 C0.4865,53 0.0643979592,52.6145765 0.0067175656,52.1167533 L0,52 L0,48 C0,47.4865 0.385423469,47.064398 0.88324672,47.0067176 L1,47 L2.185,47 C2.0954,46.7496 2.0314,46.4864 2.009384,46.210912 L2.001,46.002 L2.001,29.004 C2.001,27.4090714 3.25257398,26.1005357 4.82501157,26.0091032 L5.001,26.004 L26.001,26.004 C27.5959286,26.004 28.9044643,27.255574 28.9958968,28.8280116 L29.001,29.004 L29.001,43.004 L30,43.004 L30,41 C30,37.2213958 33.0114883,34.1311866 36.7597693,34.0040679 L37,34 L37.001,34 L40,34.002 L40,32.377 C36.5108205,30.3522821 34.1248153,26.6291315 34.00475,22.3416381 L34,22.002 L34,13 C34,7.492 38.479,3.01 43.987,3.003 L43.993125,3.0015 L44,3 L52,3 Z M54,56 C54.553,56 55,56.447 55,57 C55,57.552 55.448,58 56,58 C56.553,58 57,58.447 57,59 L57,59 L57,63 C57,63.553 56.552,64 55.999,64 C55.446,64 54.999,63.553 54.999,63 L54.999,63 L54.999,59.815 C54.152,59.514 53.486,58.848 53.184,58 L53.184,58 L10.815,58 C10.514,58.847 9.848,59.513 9,59.815 L9,59.815 L9,63 C9,63.553 8.553,64 8,64 C7.447,64 7,63.553 7,63 L7,63 L7,59 C7,58.447 7.447,58 8,58 C8.552,58 9,57.552 9,57 C9,56.447 9.447,56 10,56 L10,56 Z M3.99,49 L2,49 L2,51 L62,51 L62,49 L61.02,49 L61,49.004 L60.99,49.002 L60.99,49.002 L60.98,49 L36.039,49 L36.0195,49.002 L36.0195,49.002 L36,49.004 L24.999,49.004 L24.989,49.002 L4,49.002 L3.99,49 Z M55,36 L51.415,36.002 L49.708,37.707 C49.692,37.722 49.671,37.727 49.654,37.742 C49.588,37.801 49.517,37.847 49.438,37.886 C49.406,37.902 49.377,37.921 49.343,37.934 C49.233,37.974 49.119,38 49,38 C48.9306667,38 48.86,37.9924444 48.7894815,37.9773333 L48.684,37.949 L46,37.054 L43.316,37.948 C43.211,37.983 43.104,38 43,38 C42.881,38 42.767,37.974 42.658,37.934 C42.625,37.921 42.595,37.902 42.563,37.886 C42.484,37.846 42.412,37.801 42.347,37.742 L42.319625,37.72525 L42.319625,37.72525 L42.293,37.707 L40.586,36.002 L37,36 C34.3155526,36 32.1184086,38.1265007 32.0046285,40.7834415 L32,41 L32,43.004 L38,43.004 C38.5135,43.004 38.935602,43.3894235 38.9932824,43.8872467 L39,44.004 L39,46.004 C39,46.284 38.95392,46.55312 38.878656,46.809824 L38.817,47 L60,47 L60,41 C60,38.243 57.757,36 55,36 Z M26.001,28.004 L5.001,28.004 C4.48842857,28.004 4.06553061,28.3902857 4.00773178,28.8874315 L4.001,29.004 L4.001,46.002 C4.001,46.5117857 4.38297449,46.9301735 4.87550109,46.9921461 L4.991,47 L26.02,47 C26.5232857,46.9897857 26.936898,46.6096684 26.9934176,46.1190605 L27,46.004 L27.001,29.004 C27.001,28.452 26.553,28.004 26.001,28.004 Z M37,45.004 L29.002,45.004 L29.002,46.002 C29.0004,46.2868 28.954,46.55496 28.879184,46.810576 L28.818,47 L36.02,47 C36.5232857,46.9897857 36.936898,46.6096684 36.9934176,46.1190605 L37,46.004 L37,45.004 Z M46.03,44 C46.582,44 47.03,44.447 47.03,45 C47.03,45.553 46.582,46 46.03,46 C45.478,46 45.026,45.553 45.026,45 C45.026,44.447 45.468,44 46.02,44 L46.02,44 Z M46.03,40 C46.582,40 47.03,40.447 47.03,41 C47.03,41.553 46.582,42 46.03,42 C45.478,42 45.026,41.553 45.026,41 C45.026,40.447 45.468,40 46.02,40 L46.02,40 Z M15.501,34.004 C17.431,34.004 19.001,35.574 19.001,37.504 C19.001,39.434 17.431,41.004 15.501,41.004 C13.571,41.004 12.001,39.434 12.001,37.504 C12.001,35.574 13.571,34.004 15.501,34.004 Z M15.501,36.004 C14.674,36.004 14.001,36.677 14.001,37.504 C14.001,38.331 14.674,39.004 15.501,39.004 C16.328,39.004 17.001,38.331 17.001,37.504 C17.001,36.677 16.328,36.004 15.501,36.004 Z M50,33.3 C48.747,33.745 47.404,34 46,34 C44.752,34 43.5521975,33.7985185 42.4209602,33.4412071 L42,33.3 L42,34.588 L43.27,35.857 L45.684,35.052 C45.721,35.039 45.757,35.046 45.793,35.038 C45.862,35.024 45.929,35.013 46,35.013 C46.072,35.013 46.139,35.023 46.207,35.038 L46.261875,35.0435 L46.261875,35.0435 L46.316,35.052 L48.73,35.857 L50,34.588 L50,33.3 Z M53.796,16.21 C52.487,16.806 49.44,18 46,18 C42.6828571,18 39.7311441,16.8897628 38.3508392,16.2760638 L38.204,16.21 L36,18.414 L36,22.002 C36,27.515 40.486,32 46,32 C51.4205424,32 55.8476369,27.6657455 55.9961507,22.2814192 L56,22.002 L56,18.414 L53.796,16.21 Z M15.5,0 C21.841,0 27,5.159 27,11.5 C27,16.9803571 23.2148916,21.6080038 17.9127013,22.7331196 L17.622,22.791 L16.707,23.707 C16.52,23.895 16.266,24 16,24 C15.7791667,24 15.5652778,23.9270833 15.3918981,23.7939815 L15.293,23.707 L14.533,22.947 C8.596,22.453 4,17.498 4,11.5 C4,5.159 9.159,0 15.5,0 Z M15.5,2 C10.262,2 6,6.262 6,11.5 C6,16.563 9.964,20.725 15.025,20.976 C15.2308333,20.9868333 15.4276389,21.0601667 15.589375,21.186162 L15.682,21.268 L16,21.586 L16.432,21.152 C16.582,21.003 16.775,20.904 16.984,20.871 C21.629,20.142 25,16.2 25,11.5 C25,6.262 20.738,2 15.5,2 Z M17.317,6.036 C17.8035714,6.19757143 18.0823418,6.6980051 17.9795689,7.18821501 L17.949,7.301 L14.949,16.305 C14.811,16.724 14.42,16.989 14.001,16.989 C13.897,16.989 13.79,16.972 13.685,16.937 C13.1984286,16.7754286 12.9196582,16.2749949 13.0216305,15.784785 L13.052,15.672 L16.052,6.668 C16.225,6.144 16.789,5.859 17.317,6.036 Z M51,5 L44.005,5.001 C39.6723208,5.00198113 36.1357284,8.45588074 36.0038145,12.7512738 L36,13 L36,15.586 L37.293,14.292 C37.307,14.279 37.324,14.275 37.338,14.263 C37.391,14.215 37.45,14.183 37.511,14.148 C37.564,14.118 37.613,14.084 37.669,14.064 C37.731,14.042 37.796,14.036 37.861,14.027 C37.923,14.018 37.981,14.005 38.043,14.008 C38.106,14.01 38.164,14.028 38.225,14.043 C38.293,14.059 38.359,14.074 38.422,14.103 C38.439,14.111 38.456,14.11 38.473,14.119 C38.508,14.138 42.032,16 46,16 C49.4035366,16 52.4550952,14.6438281 53.2971179,14.23508 L53.4637682,14.152306 C53.5023052,14.1326425 53.523439,14.1213902 53.526,14.12 C53.543,14.111 53.561,14.112 53.578,14.104 C53.642,14.073 53.709,14.06 53.776,14.043 C53.836,14.03 53.892,14.012 53.953,14.009 C54.018,14.007 54.081,14.019 54.146,14.029 C54.208,14.039 54.268,14.043 54.328,14.064 C54.386,14.085 54.436,14.119 54.491,14.15 C54.551,14.184 54.609,14.216 54.662,14.264 L54.6845,14.277375 L54.6845,14.277375 L54.707,14.293 L56,15.586 L56,13 C56,10.794 54.206,9 52,9 C51.4865,9 51.064398,8.61457653 51.0067176,8.11675328 L51,8 L51,5 Z M20.1127105,8.19971006 L20.207,8.283 L22.695,10.773 L22.707,10.781 C22.903,10.977 23,11.233 23,11.49 C23,11.7041667 22.9326389,11.9183333 22.7967593,12.0966204 L22.707,12.199 L22.695,12.207 L20.207,14.695 C20.012,14.89 19.756,14.988 19.5,14.988 C19.244,14.988 18.988,14.89 18.793,14.695 C18.4320769,14.335 18.4043136,13.7679467 18.7097101,13.3753059 L18.793,13.281 L20.584,11.49 L18.793,9.697 C18.402,9.306 18.402,8.673 18.793,8.283 C19.1539231,7.92207692 19.7201953,7.89431361 20.1127105,8.19971006 Z M12.207,8.283 C12.5679231,8.643 12.5956864,9.21005325 12.2902899,9.60269413 L12.207,9.697 L10.416,11.49 L12.207,13.281 C12.598,13.672 12.598,14.304 12.207,14.695 C12.012,14.89 11.756,14.988 11.5,14.988 C11.2866667,14.988 11.0733333,14.9199444 10.8953009,14.784412 L10.793,14.695 L8.305,12.207 L8.293,12.199 C8.097,12.004 8,11.747 8,11.49 C8,11.2758333 8.06736111,11.0630556 8.20324074,10.8840741 L8.293,10.781 L8.305,10.773 L10.793,8.283 C11.184,7.892 11.816,7.892 12.207,8.283 Z" id="Combined-Shape"></path>
            </g>
        </g>
    </g>
</svg>